<?xml version="1.0" standalone="yes"?>
<svg xmlns="http://www.w3.org/2000/svg" width="3081" height="250">
<path style="fill:#ffffff; stroke:none;" d="M0 0L0 250L64 250L64 17L1939 17L1939 250L3081 250L3081 0L0 0z"/>
<path style="fill:#0b1117; stroke:none;" d="M64 17L64 39L86 39L86 17L64 17z"/>
<path style="fill:#6799cd; stroke:none;" d="M86 17L86 39L64 39L64 174L109 174L109 39L333 39L333 17L86 17z"/>
<path style="fill:#0b1117; stroke:none;" d="M333 17L333 39L355 39L355 174L333 174L333 196L199 196L199 240L221 240L221 250L1939 250L1939 156L1938 156C1929.6 182.316 1897.06 174.438 1878 169L1882 159C1891.33 164.303 1904.48 167.429 1915 163.895C1924.16 160.819 1930.78 151.578 1926.23 142.001C1918.96 126.707 1894.8 128.715 1884.79 114.985C1874.75 101.221 1883.18 82.3398 1899 77.9275C1912.63 74.1248 1923.06 78.4617 1936 82C1931 99.3124 1903.63 74.9395 1893.46 95.0039C1889.43 102.941 1893.9 111.34 1901 115.471C1913.99 123.029 1933.01 124.19 1938 141L1939 141L1939 17L333 17z"/>
<path style="fill:#339901; stroke:none;" d="M622 35L622 79C607.016 74.2617 587.266 77.4081 576.184 89.0903C558.834 107.382 558.612 147.721 578.039 164.674C597.26 181.448 625.058 174.987 647 169L647 35L622 35z"/>
<path style="fill:#6799cd; stroke:none;" d="M1154 35L1154 173L1165 173L1165 35L1154 35z"/>
<path style="fill:#339901; stroke:none;" d="M2350.01 38.858C2334.33 45.3818 2346.22 68.8678 2362 62.2932C2378.77 55.3077 2365.87 32.2658 2350.01 38.858M2804.01 38.858C2788.33 45.3819 2800.22 68.8678 2816 62.2932C2832.77 55.3076 2819.87 32.2659 2804.01 38.858z"/>
<path style="fill:#0b1117; stroke:none;" d="M109 39L109 174L310 174L310 39L109 39z"/>
<path style="fill:#339901; stroke:none;" d="M310 39L310 174L86 174L86 196L153 196L153 219L175 219L175 241L198 241L198 250L221 250L221 240L199 240L199 196L333 196L333 174L355 174L355 39L310 39M2691 150C2691 155.792 2688.43 169.889 2692.6 174.298C2696.79 178.718 2707.29 179.518 2713 180.41C2733.75 183.651 2764.59 181.576 2774.86 160C2787.85 132.737 2763.75 113.113 2742 102.247C2733.12 97.8077 2720.98 93.8591 2716.66 84C2712.66 74.8776 2720.91 66.5539 2729 63.7608C2744.17 58.5196 2758.79 63.6733 2772 71C2772 65.3493 2774.44 52.3235 2770.97 47.7022C2766.91 42.2867 2753.94 43.0004 2748 43C2727.51 42.9987 2701.88 44.6226 2692.93 67C2691.24 71.2274 2691 75.5043 2691 80C2691 103.499 2711.53 113.519 2730 122.753C2737.56 126.535 2746.98 130.259 2751.35 138.015C2757.19 148.378 2747.66 158.456 2738 161.073C2719.93 165.968 2706.63 156.485 2691 150z"/>
<path style="fill:#6799cd; stroke:none;" d="M778 44.4282C772.903 45.1585 761.137 46.0662 758.603 51.3935C755.496 57.9259 758 70.8033 758 78L758 141C758 147.392 755.126 163.096 759.028 168.298C765.272 176.624 788.943 175.888 798 174.711C847.875 168.229 860.379 93.8732 829.826 60.0039C816.718 45.4721 796.764 41.7401 778 44.4282M1614 44.4282C1608.9 45.1585 1597.14 46.0661 1594.6 51.3935C1591.5 57.926 1594 70.8033 1594 78L1594 141C1594 147.392 1591.13 163.096 1595.03 168.298C1601.27 176.624 1624.94 175.888 1634 174.711C1683.83 168.235 1696.37 93.863 1665.83 60.0039C1652.72 45.4721 1632.76 41.7401 1614 44.4282z"/>
<path style="fill:#339901; stroke:none;" d="M2034 45L2034 180L2057 180L2057 126C2062.15 126 2068.08 125.194 2073 126.97C2086.74 131.931 2094.01 150.353 2101 162C2103.97 166.946 2107.28 175.913 2112.33 178.972C2118.37 182.632 2132.03 180 2139 180C2136.79 173.019 2131.94 167.13 2128.05 161C2119.42 147.393 2109.89 125.155 2094 119C2103.05 114.967 2111.26 111.484 2117.2 103C2128.79 86.4539 2123.98 59.9792 2106 50.3241C2086.07 39.6199 2055.96 45 2034 45M384 46L384 67L411 67L411 173L437 173L437 67L463 67L463 46L384 46z"/>
<path style="fill:#0b1117; stroke:none;" d="M770 57L770 162C786.499 165.404 803.057 167.091 816.91 155.331C840.574 135.241 839.904 79.2432 813.996 61.2207C799.881 51.4016 785.609 54.898 770 57M1606 57L1606 162C1620.44 164.979 1636.07 167.425 1649 158.211C1676.81 138.389 1677.57 78.8291 1648 60.0934C1634.32 51.4272 1620.79 55.0084 1606 57z"/>
<path style="fill:#eec30b; stroke:none;" d="M209 55L203 61L203 62L205 69L214 69L216 61L209 55z"/>
<path style="fill:#339901; stroke:none;" d="M2855 60L2855 83L2839 83L2839 101L2855 101L2855 147C2855 155.198 2853.97 163.699 2858.48 170.985C2864.85 181.268 2876.31 181.051 2887 180.999C2890.47 180.982 2896.55 181.381 2898.97 178.272C2901.77 174.676 2900 165.383 2900 161C2894.66 162.414 2888.17 164.673 2883.05 161.258C2877.54 157.575 2877.03 150 2877 144C2876.93 129.667 2877 115.333 2877 101L2900 101L2900 83L2877 83L2877 55L2855 60z"/>
<path style="fill:#6799cd; stroke:none;" d="M210.333 56.6667L210.667 57.3333L210.333 56.6667M208 57L209 58L208 57M202 62L207 61L202 62M212 60L212 61L217 62L212 60z"/>
<path style="fill:#339901; stroke:none;" d="M217 60L218 61L217 60z"/>
<path style="fill:#eec30b; stroke:none;" d="M187 61C185.616 64.7676 183.956 65.6953 180 66L183 75L187 72L188 72L192 75L195 66L187 61M231 61C229.616 64.7676 227.956 65.6953 224 66L229 70L227 75L236 75L239 66L233 66L231 61z"/>
<path style="fill:#6799cd; stroke:none;" d="M186.333 62.6667L186.667 63.3333L186.333 62.6667z"/>
<path style="fill:#339901; stroke:none;" d="M215 62L216 63L215 62z"/>
<path style="fill:#6799cd; stroke:none;" d="M232 62L233 63L232 62M188 63L189 64L188 63M205 63L206 64L205 63M230 63L231 64L230 63z"/>
<path style="fill:#ffffff; stroke:none;" d="M2057 64L2057 107C2067.73 107 2080.66 108.32 2089.96 101.892C2101.6 93.8507 2101.8 73.4154 2089 66.4174C2080.18 61.5958 2066.74 64 2057 64z"/>
<path style="fill:#6799cd; stroke:none;" d="M185 65L186 66L185 65M233 65L234 66L233 65M179 66L180 67L179 66M195 66L196 67L195 66M205 66L206 67L205 66M213 66L214 67L213 66z"/>
<path style="fill:#339901; stroke:none;" d="M223 66L224 67L223 66z"/>
<path style="fill:#6799cd; stroke:none;" d="M239 66L240 67L239 66M180 67L181 68L180 67M194 67L195 68L194 67M208 67L209 68L208 67z"/>
<path style="fill:#339901; stroke:none;" d="M210 67L211 68L210 67M224 67L225 68L224 67z"/>
<path style="fill:#6799cd; stroke:none;" d="M238 67L239 68L238 67M237 68L238 69L237 68M183 69L184 70L183 69M191 69L192 70L191 69M204.667 69.3333L205.333 69.6667L204.667 69.3333M213.667 69.3333L214.333 69.6667L213.667 69.3333M227 69L228 70L227 69M228 70L229 71L228 70M235 71L236 72L235 71M183 72L184 73L183 72M187 72L188 73L187 72M191 72L192 73L191 72M227.333 72.6667L227.667 73.3333L227.333 72.6667z"/>
<path style="fill:#339901; stroke:none;" d="M188 73L189 74L188 73z"/>
<path style="fill:#6799cd; stroke:none;" d="M230 73L231 74L230 73M184 74L185 75L184 74M234 74L235 75L234 74M236.333 74.6667L236.667 75.3333L236.333 74.6667M182.667 75.3333L183.333 75.6667L182.667 75.3333M191.667 75.3333L192.333 75.6667L191.667 75.3333M227 75L228 76L227 75z"/>
<path style="fill:#339901; stroke:none;" d="M235 75L236 76L235 75M542 150C520.3 155.923 499.314 161.878 489 136L550 128C550 113.986 550.296 100.633 541.1 89.0394C526.583 70.7352 492.902 71.7241 477.44 88.1736C466.522 99.7881 464.034 116.68 465.09 132C467.211 162.804 493.653 179.57 523 175.575C528.767 174.79 543.669 174.343 546.879 168.581C549.4 164.056 543.249 154.567 542 150z"/>
<path style="fill:#6799cd; stroke:none;" d="M939 169L936 159C920.411 165.046 900.775 169.92 887.04 156.895C883.106 153.164 872.418 138.276 877.643 132.603C880.732 129.249 890.677 129.472 895 128.87C910.679 126.684 926.296 123.986 942 122C942 113.457 942.322 105.097 939.07 97C930.05 74.5405 897.442 69.1836 880.004 85.1049C850.687 111.872 863.092 174.474 907 174.996C918.397 175.132 928.386 173.094 939 169M1127 169L1123 159C1097.48 169.467 1064.71 165.271 1064 131L1130 122C1130 113.959 1130.06 105.617 1127.07 98C1117.72 74.1856 1084.27 68.8074 1066.09 86.1844C1037.94 113.098 1052.08 173.958 1094 174.985C1105.93 175.278 1115.81 172.786 1127 169M1223 76.4282C1171.57 83.8099 1178.53 181.937 1234 174.711C1284.32 168.156 1277.28 68.6377 1223 76.4282M1291 211L1302 211L1302 172C1310.91 174.504 1321.87 175.28 1331 173.331C1368.34 165.365 1374.71 107.891 1348 85.213C1336.67 75.5921 1319.92 74.8329 1306 77.4599C1302.01 78.2125 1294.62 79.2022 1292.03 82.6991C1288.02 88.099 1291 104.377 1291 111L1291 153L1291 211M1457 169L1454 159C1437.73 165.311 1418.04 169.85 1404.09 155.907C1400.35 152.165 1390.86 138.079 1395.69 132.603C1398.65 129.246 1408.77 129.46 1413 128.87C1428.68 126.684 1444.3 123.986 1460 122C1460 113.522 1460.48 104.997 1457.12 97C1447.52 74.0923 1414.52 69.0972 1397.01 86.0432C1368.96 113.201 1381.81 174.482 1425 174.996C1436.47 175.133 1446.31 173.125 1457 169M1483 173L1495 173L1495 89L1523 86C1523.52 83.7193 1525.33 79.784 1523.88 77.6034C1522.19 75.0616 1516.58 75.9517 1514 76.0147C1506.75 76.1918 1488.59 76.8842 1484.03 83.4992C1480.5 88.6162 1483 101.918 1483 108L1483 173M1735 76.439C1683.28 84.5135 1691.02 183.376 1747 174.561C1796.65 166.742 1789.16 67.9842 1735 76.439M1862 169L1859 160C1845.71 162.361 1836.69 168.525 1824.01 159.211C1803.04 143.799 1805.81 99.0913 1830 88.3488C1840.87 83.5204 1848.51 89.1356 1859 91L1862 82C1854.25 78.8222 1846.56 75.7669 1838 76.0432C1783.22 77.8115 1785.94 177.434 1842 174.961C1849.18 174.644 1855.67 172.233 1862 169M1882 159L1878 169C1892.02 174.722 1908.37 177.929 1923 172.07C1937.44 166.29 1944.89 147.492 1935.35 134.004C1926.12 120.952 1891.34 120.177 1892.15 101C1892.72 87.511 1909.54 84.1696 1920 86.9244C1923.25 87.7815 1928.23 91.3511 1931.61 90.267C1934.75 89.2594 1935.51 84.7383 1936 82C1916.91 74.5975 1883.68 70.7234 1880.29 99C1879.82 102.96 1880.48 107.302 1881.98 111C1889.42 129.377 1913.7 125.653 1924.43 140.015C1932.02 150.178 1923.51 161.223 1913 164.211C1902.32 167.247 1891.71 162.984 1882 159M171 77L170 79L171 77M247 77L249 79L249 77L247 77z"/>
<path style="fill:#eec30b; stroke:none;" d="M171 78L164 83L164 84L167 91L176 92L174 86L178 84L178 83L171 78M247 78L241 83L241 84L245 86L243 92C246.988 90.0211 248.99 90.111 253 92C252.103 88.3117 252.184 86.6122 255 84L255 83L247 78z"/>
<path style="fill:#6799cd; stroke:none;" d="M957 78C960.666 102.826 974.89 129.529 983.808 153C987.39 162.428 988.201 174.964 1000.96 172.852C1008.04 171.68 1010.39 156.789 1012.58 151C1021.31 127.851 1034.81 102.365 1039 78L1026.84 79.6034L1018.58 101L998 160L977.192 101L968.914 79.6034L957 78z"/>
<path style="fill:#339901; stroke:none;" d="M172 79L173 80L172 79z"/>
<path style="fill:#6799cd; stroke:none;" d="M172 80L173 81L172 80M246 80L247 81L246 80M169 81L170 82L169 81M249 81L250 82L249 81z"/>
<path style="fill:#339901; stroke:none;" d="M2220 155C2202.09 160.669 2177.77 172.059 2165.67 149C2163.85 145.528 2163.18 141.865 2163 138L2228 138C2228 121.228 2227.93 102.814 2214.83 90.3009C2197.54 73.7909 2165.98 79.1837 2151.19 96.0008C2142.8 105.528 2139.44 118.526 2139.13 131C2138.69 148.703 2145.33 168.214 2162 176.623C2174.43 182.893 2191.66 182.373 2205 179.547C2209.12 178.674 2216.4 177.024 2218.97 173.362C2221.83 169.293 2220 159.816 2220 155M2469 155C2451.09 160.669 2426.77 172.059 2414.67 149C2412.85 145.528 2412.18 141.865 2412 138L2477 138C2477 121.228 2476.93 102.814 2463.83 90.3009C2446.54 73.7909 2414.98 79.1838 2400.19 96.0008C2391.8 105.528 2388.44 118.526 2388.13 131C2387.69 148.703 2394.33 168.214 2411 176.623C2423.43 182.893 2440.66 182.373 2454 179.547C2458.12 178.674 2465.4 177.024 2467.97 173.362C2470.83 169.293 2469 159.816 2469 155M2991 155C2973.09 160.669 2948.77 172.059 2936.67 149C2934.85 145.528 2934.18 141.865 2934 138L2999 138C2999 120.938 2998.91 101.725 2984.91 89.4676C2966.93 73.7286 2935.74 79.5739 2921.33 97C2913.55 106.403 2910.43 118.986 2910.13 131C2909.69 148.703 2916.33 168.214 2933 176.623C2945.43 182.893 2962.66 182.373 2976 179.547C2980.12 178.674 2987.4 177.024 2989.97 173.362C2992.83 169.293 2991 159.816 2991 155z"/>
<path style="fill:#6799cd; stroke:none;" d="M163 82L163 83L169 83L163 82M173 82L173 83L179 84L173 82M240 84L246 83L240 84M250 82L250 83L256 83L250 82z"/>
<path style="fill:#339901; stroke:none;" d="M2234 83C2241.96 106.529 2251.34 129.605 2259.69 153C2261.97 159.367 2264.84 175.073 2270.5 178.972C2274.38 181.644 2291.86 181.538 2294.78 177.682C2300.42 170.233 2302.79 157.698 2306.2 149C2314.37 128.216 2327.22 104.983 2331 83L2307.7 84.0278L2300.33 104L2283 158L2265.67 103L2258.49 84.0278L2234 83M2345 83L2345 180L2367 180L2367 83L2345 83M2484 83L2504.98 154L2513.51 178.972L2536 180L2556 111L2557 111C2557.71 126.583 2564.71 143.994 2569 159C2570.62 164.674 2571.25 172.683 2574.43 177.682C2576.92 181.602 2595.01 181.652 2598.15 178.397C2603.38 172.956 2604.92 158.219 2607 151C2613.54 128.298 2620.55 105.729 2627 83L2605.73 84.0278L2599.87 103L2587 156L2586 156L2569 83L2547.56 84.0278L2541.12 103L2527 156L2513.37 104L2507.27 84.0278L2484 83M2799 83L2799 180L2821 180L2821 83L2799 83z"/>
<path style="fill:#6799cd; stroke:none;" d="M165 84L166 85L165 84M253 84L254 85L253 84z"/>
<path style="fill:#339901; stroke:none;" d="M166 85L167 86L166 85z"/>
<path style="fill:#6799cd; stroke:none;" d="M175 85L176 86L175 85M243 85L244 86L243 85z"/>
<path style="fill:#339901; stroke:none;" d="M252 85L253 86L252 85z"/>
<path style="fill:#0b1117; stroke:none;" d="M875 123L931 115C930.939 92.827 909.385 75.9347 889.004 90.6381C878.628 98.1237 876.494 111.189 875 123M1063 123C1076.01 119.867 1089.75 118.716 1103 116.87C1106.61 116.366 1115.63 116.646 1117.93 113.4C1123.91 104.97 1109.98 89.5471 1103 87.1088C1078.8 78.6532 1063.44 101.519 1063 123M1393 123L1449 115C1448.94 92.367 1426.11 75.3048 1406.04 91.5293C1395.82 99.7961 1395.76 111.406 1393 123z"/>
<path style="fill:#6799cd; stroke:none;" d="M174 86L175 87L174 86M244 86L245 87L244 86z"/>
<path style="fill:#0b1117; stroke:none;" d="M1222 86.5293C1187 94.5642 1193.27 173.317 1234 164.481C1269.16 156.854 1262.76 77.172 1222 86.5293M1312 86.439C1297.63 88.7016 1302 103.394 1302 115L1302 148C1302 151.645 1300.74 158.343 1303.03 161.436C1306.26 165.806 1318.24 165.331 1323 164.711C1367.95 158.858 1360.55 78.793 1312 86.439M1734 86.5293C1698.81 94.6511 1705.64 173.88 1747 164.319C1781.36 156.378 1774.5 77.1837 1734 86.5293z"/>
<path style="fill:#6799cd; stroke:none;" d="M167.333 87.6667L167.667 88.3333L167.333 87.6667M251 87L252 88L251 87M172 89L173 90L172 89M175 89L176 90L175 89M243 89L244 90L243 89M246 89L247 90L246 89M166 90L166 92L168 92L166 90M168 90L169 91L168 90M173 90L174 91L173 90M245 90L246 91L245 90M250 90L251 91L250 90M252 90L253 91L252 90z"/>
<path style="fill:#339901; stroke:none;" d="M251 91L252 92L251 91z"/>
<path style="fill:#0b1117; stroke:none;" d="M488 120L526 115C525.662 98.7181 509.214 86.5837 495.329 99.5293C489.703 104.774 488.061 112.655 488 120z"/>
<path style="fill:#339901; stroke:none;" d="M684 95L684 133L722 133L722 95L684 95z"/>
<path style="fill:#0b1117; stroke:none;" d="M622 154L622 128C622 119.713 624.099 108.159 621.682 100.228C618.841 90.9051 600.503 97.8008 596.329 102.188C585.655 113.408 585.296 141.449 598.093 151.362C605.388 157.012 613.689 155.612 622 154z"/>
<path style="fill:#eec30b; stroke:none;" d="M165 99C163.478 102.756 162.057 104.356 158 105L158 106L161 113L170 114L168 108L172 105L165 99z"/>
<path style="fill:#6799cd; stroke:none;" d="M253 99L255 101L253 99z"/>
<path style="fill:#ffffff; stroke:none;" d="M2163 122L2206 122C2204.69 91.4642 2165.55 92.78 2163 122M2412 122L2455 122C2453.69 91.4642 2414.55 92.78 2412 122M2934 122L2977 122C2975.69 91.4642 2936.55 92.78 2934 122z"/>
<path style="fill:#6799cd; stroke:none;" d="M164 100L165 101L164 100z"/>
<path style="fill:#eec30b; stroke:none;" d="M253 100L247 105L247 106L251 108L249 114L258 113L261 106L261 105L253 100z"/>
<path style="fill:#6799cd; stroke:none;" d="M166.333 101.667L166.667 102.333L166.333 101.667M252.333 101.667L252.667 102.333L252.333 101.667M163 103L164 104L163 103M255 103L256 104L255 103M157 104L157 105L163 105L157 104M167 104L167 105L173 106L167 104z"/>
<path style="fill:#339901; stroke:none;" d="M173 104L174 105L173 104z"/>
<path style="fill:#6799cd; stroke:none;" d="M246 106L252 105L246 106M256 104L256 105L262 105L256 104M159 106L160 107L159 106z"/>
<path style="fill:#339901; stroke:none;" d="M171 106L172 107L171 106z"/>
<path style="fill:#6799cd; stroke:none;" d="M259 106L260 107L259 106z"/>
<path style="fill:#339901; stroke:none;" d="M160 107L161 108L160 107z"/>
<path style="fill:#6799cd; stroke:none;" d="M249 107L250 108L249 107M168 108L169 109L168 108M250 108L251 109L250 108M161.333 109.667L161.667 110.333L161.333 109.667M257.333 109.667L257.667 110.333L257.333 109.667M164 111L165 112L164 111M166 111L167 112L166 111M169 111L170 112L169 111M249 111L250 112L249 111M252 111L253 112L252 111M160 112L160 114L162 114L160 112M167 112L168 113L167 112z"/>
<path style="fill:#339901; stroke:none;" d="M251 112L252 113L251 112z"/>
<path style="fill:#6799cd; stroke:none;" d="M258 112L257 114L259 114L258 112M171 121L170 123L171 121M247 121L249 123L247 121z"/>
<path style="fill:#eec30b; stroke:none;" d="M171 122L164 127L164 128L167 135L176 136L178 127L171 122M247 122L241 127L245 130L243 136L253 136L251 130L255 128L255 127L247 122z"/>
<path style="fill:#6799cd; stroke:none;" d="M172 124L173 125L172 124M246 124L247 125L246 124M169 125L170 126L169 125M249 125L250 126L249 125z"/>
<path style="fill:#339901; stroke:none;" d="M163 128L169 127L163 128z"/>
<path style="fill:#6799cd; stroke:none;" d="M173 126L174 127L173 126z"/>
<path style="fill:#339901; stroke:none;" d="M174 126L174 127L179 127L174 126M240 126L240 127L246 127L240 126M250 126L250 127L256 127L250 126z"/>
<path style="fill:#6799cd; stroke:none;" d="M178 127L179 128L178 127M240 127L241 128L240 127M255 127L256 128L255 127M177 128L178 129L177 128z"/>
<path style="fill:#339901; stroke:none;" d="M241 128L242 129L241 128z"/>
<path style="fill:#6799cd; stroke:none;" d="M166 129L167 130L166 129M252 129L253 130L252 129M244 130L245 131L244 130z"/>
<path style="fill:#339901; stroke:none;" d="M251 130L252 131L251 130z"/>
<path style="fill:#6799cd; stroke:none;" d="M167.333 131.667L167.667 132.333L167.333 131.667M251 131L252 132L251 131M170 133L171 134L170 133M175 133L176 134L175 133M243.333 133.667L243.667 134.333L243.333 133.667z"/>
<path style="fill:#339901; stroke:none;" d="M248 133L249 134L248 133z"/>
<path style="fill:#6799cd; stroke:none;" d="M166 134L166 136L168 136L166 134M173 134L174 135L173 134M245 134L246 135L245 134M252 134L253 135L252 134z"/>
<path style="fill:#339901; stroke:none;" d="M244 135L245 136L244 135z"/>
<path style="fill:#6799cd; stroke:none;" d="M251 135L252 136L251 135M187 137L188 138L187 137M231 137L232 138L231 137z"/>
<path style="fill:#eec30b; stroke:none;" d="M187 138L186 143L180 143L180 144L183 152L192 152L195 144L195 143L189 143L187 138M231 138C229.616 141.768 227.956 142.695 224 143L224 144L227 152L236 152L239 144L239 143L233 143L231 138z"/>
<path style="fill:#6799cd; stroke:none;" d="M186 139L187 140L186 139M188 139L189 140L188 139M232 139L233 140L232 139M230 140L231 141L230 140M185 142L186 143L185 142M189 142L190 143L189 142M233 142L234 143L233 142z"/>
<path style="fill:#339901; stroke:none;" d="M179 143L180 144L179 143z"/>
<path style="fill:#6799cd; stroke:none;" d="M209 143L210 144L209 143M239 143L240 144L239 143z"/>
<path style="fill:#eec30b; stroke:none;" d="M209 144L208 149L202 149L202 150L205 158L214 158L217 150L217 149L211 149L209 144z"/>
<path style="fill:#6799cd; stroke:none;" d="M225 144L226 145L225 144M182 145L183 146L182 145M192 145L193 146L192 145M208 145L209 146L208 145M210 145L211 146L210 145M226 145L227 146L226 145M236 145L237 146L236 145z"/>
<path style="fill:#339901; stroke:none;" d="M235 146L236 147L235 146z"/>
<path style="fill:#6799cd; stroke:none;" d="M183.333 148.667L183.667 149.333L183.333 148.667M191.333 148.667L191.667 149.333L191.333 148.667z"/>
<path style="fill:#339901; stroke:none;" d="M202 148L202 149L207 149L202 148z"/>
<path style="fill:#6799cd; stroke:none;" d="M207 148L208 149L207 148M211 148L212 149L211 148z"/>
<path style="fill:#339901; stroke:none;" d="M212 148L212 149L217 149L212 148z"/>
<path style="fill:#6799cd; stroke:none;" d="M235 148L236 149L235 148M227 149L228 150L227 149z"/>
<path style="fill:#339901; stroke:none;" d="M231 149L232 150L231 149z"/>
<path style="fill:#6799cd; stroke:none;" d="M232 149L233 150L232 149M185 150L186 151L185 150M189 150L190 151L189 150M203 150L204 151L203 150M215 150L216 151L215 150M229 150L230 151L229 150M233 150L234 151L233 150M182 151L183 152L182 151z"/>
<path style="fill:#339901; stroke:none;" d="M190 151L191 152L190 151M204 151L205 152L204 151z"/>
<path style="fill:#6799cd; stroke:none;" d="M214 151L215 152L214 151M228 151L229 152L228 151M236.333 151.667L236.667 152.333L236.333 151.667z"/>
<path style="fill:#339901; stroke:none;" d="M192 152L193 153L192 152z"/>
<path style="fill:#6799cd; stroke:none;" d="M205.333 154.667L205.667 155.333L205.333 154.667M213 154L214 155L213 154M210 155L211 156L210 155M207 156L208 157L207 156z"/>
<path style="fill:#339901; stroke:none;" d="M211 156L212 157L211 156z"/>
<path style="fill:#6799cd; stroke:none;" d="M204 157L205 158L204 157M214 157L215 158L214 157z"/>
<path style="fill:#0b1117; stroke:none;" d="M64 174L64 250L198 250L198 241L175 241L175 219L153 219L153 196L86 196L86 174L64 174z"/>
</svg>
