<svg width="16" height="16" viewBox="0 0 16 16" fill="none" xmlns="http://www.w3.org/2000/svg">
<g clip-path="url(#clip0_3405_2591)">
<path d="M16.0224 3.13968C15.4227 3.40198 14.7869 3.5725 14.1365 3.64551C14.8203 3.24748 15.3337 2.61177 15.579 1.85953C14.9315 2.23428 14.2269 2.5001 13.4933 2.64637C13.043 2.17488 12.4627 1.84779 11.8262 1.70658C11.1897 1.56538 10.5256 1.61643 9.91809 1.85326C9.31063 2.09009 8.78721 2.50203 8.41423 3.0368C8.04125 3.57158 7.83553 4.20509 7.82316 4.85697C7.82447 5.10476 7.8517 5.35173 7.90441 5.59384C6.60432 5.53127 5.33152 5.19855 4.16712 4.61689C3.00272 4.03523 1.97226 3.21739 1.1414 2.21548C0.850415 2.70702 0.697255 3.26788 0.698021 3.83909C0.699693 4.37363 0.834085 4.89938 1.08913 5.36915C1.34418 5.83892 1.7119 6.23799 2.15927 6.53054C1.63888 6.51365 1.12976 6.3746 0.673021 6.12464V6.16214C0.673986 6.56408 0.750238 6.96229 0.897834 7.33614C1.10112 7.84381 1.42814 8.29256 1.84914 8.64156C2.27014 8.99057 2.77174 9.22873 3.30828 9.33438C3.02521 9.41014 2.73332 9.44794 2.44028 9.44678C2.23291 9.44722 2.02595 9.42838 1.82206 9.39053C2.0376 10.036 2.44848 10.5985 2.99781 11.0001C3.54714 11.4018 4.20775 11.6227 4.88818 11.6324C3.72066 12.5346 2.28593 13.0223 0.810434 13.0186C0.549594 13.0198 0.288922 13.0052 0.0298462 12.9749C1.53631 13.9252 3.28189 14.4276 5.06303 14.4236C10.1961 14.4236 13.3434 10.8704 14.1802 7.17986C14.3285 6.54102 14.4039 5.88745 14.405 5.23163C14.405 5.09426 14.405 4.95064 14.3987 4.81327C15.034 4.35504 15.5836 3.78853 16.0224 3.13968Z" fill="#333333"/>
</g>
<defs>
<clipPath id="clip0_3405_2591">
<rect width="16" height="16" fill="white"/>
</clipPath>
</defs>
</svg>
