<svg width="16" height="16" viewBox="0 0 16 16" fill="none" xmlns="http://www.w3.org/2000/svg">
<path d="M5.98105 10.5533V5.39355C7.66277 6.25639 9.33862 7.11348 11.032 7.98208C9.34448 8.84492 7.66862 9.69627 5.98105 10.5533ZM15.708 4.44444C15.6154 4.04251 15.4007 3.67911 15.0933 3.40411C14.7859 3.12912 14.4009 2.95602 13.9911 2.90859C12.0165 2.69574 10.0242 2.69574 8.03778 2.69574C6.05137 2.69574 4.05324 2.69574 2.0844 2.91434C1.67477 2.95952 1.28936 3.13112 0.981695 3.40531C0.674025 3.67951 0.459357 4.04269 0.367493 4.44444C0.0921427 5.6294 0.0862427 6.91789 0.0862427 8.13163C0.0862427 9.35112 0.0862427 10.6396 0.36163 11.8188C0.454237 12.2207 0.668985 12.5841 0.976391 12.8591C1.2838 13.1341 1.66879 13.3072 2.0785 13.3547C4.04733 13.5675 6.04547 13.5732 8.03187 13.5675C10.0183 13.5675 12.0106 13.5675 13.9852 13.3547C14.3953 13.3082 14.7809 13.1355 15.0885 12.8603C15.3961 12.5852 15.6105 12.2212 15.7022 11.8188C15.9776 10.6396 15.9776 9.34532 15.9776 8.13159C15.9776 6.91787 15.9834 5.6294 15.708 4.44444Z" fill="#333333"/>
</svg>
