<svg xmlns="http://www.w3.org/2000/svg" width="48" height="48" viewBox="0 0 48 48"><path fill="#FFF" fill-rule="evenodd" d="M15.838 42c16.605 0 25.685-13.85 25.685-25.858q0-.59-.026-1.175A18.4 18.4 0 0 0 46 10.262a17.9 17.9 0 0 1-5.184 1.43 9.1 9.1 0 0 0 3.97-5.026 18 18 0 0 1-5.733 2.205A9 9 0 0 0 32.466 6c-4.986 0-9.03 4.071-9.03 9.088 0 .712.08 1.406.235 2.072-7.503-.38-14.156-3.997-18.608-9.495a9.1 9.1 0 0 0-1.222 4.567 9.1 9.1 0 0 0 4.018 7.565 8.9 8.9 0 0 1-4.09-1.137l-.001.117c0 4.4 3.112 8.075 7.242 8.909a8.895 8.895 0 0 1-4.077.155c1.15 3.611 4.481 6.238 8.433 6.313a18.04 18.04 0 0 1-11.212 3.89q-1.091 0-2.153-.126A25.44 25.44 0 0 0 15.838 42"/></svg>