<svg xmlns="http://www.w3.org/2000/svg" width="48" height="48" viewBox="0 0 48 48"><path d="M6.249 27C7.514 34.539 13.463 40.488 21 41.752v4.046C11.25 44.468 3.533 36.75 2.204 27zM34.43 38.673l2.861 2.86a21.9 21.9 0 0 1-10.29 4.265v-4.046a17.9 17.9 0 0 0 7.043-2.811zM45.797 27a21.9 21.9 0 0 1-4.264 10.29l-2.86-2.86A17.9 17.9 0 0 0 41.75 27zM17 26v7h-4v-7zm9-13v20h-4V13zm9 7v13h-4V20zM21 2.203v4.046C13.463 7.513 7.513 13.462 6.25 20.999H2.203C3.533 11.25 11.25 3.533 21 2.204m6 0C36.75 3.533 44.468 11.25 45.797 21h-4.046c-1.264-7.537-7.213-13.486-14.75-14.751z"/></svg>