<svg xmlns="http://www.w3.org/2000/svg" width="48" height="48" viewBox="0 0 48 48"><path fill-rule="evenodd" d="M31.011 7.42a17.8 17.8 0 0 1 5.715 3.854 17.8 17.8 0 0 1 3.854 5.715A17.9 17.9 0 0 1 42 24c0 2.435-.48 4.793-1.42 7.013a17.9 17.9 0 0 1-3.854 5.715A17.95 17.95 0 0 1 24 42c-2.435 0-4.795-.479-7.013-1.418a17.8 17.8 0 0 1-5.715-3.854 17.9 17.9 0 0 1-3.854-5.715A17.9 17.9 0 0 1 6 24c0-2.434.479-4.793 1.418-7.011a17.8 17.8 0 0 1 3.854-5.715 17.9 17.9 0 0 1 5.715-3.854A17.85 17.85 0 0 1 24 6c2.434 0 4.793.479 7.011 1.42m1.558-3.684a21.8 21.8 0 0 1 6.985 4.71 21.8 21.8 0 0 1 4.71 6.985A21.85 21.85 0 0 1 46 24.001c0 2.976-.587 5.858-1.736 8.57a21.8 21.8 0 0 1-4.71 6.985 21.9 21.9 0 0 1-6.985 4.71A21.85 21.85 0 0 1 24 46c-2.977 0-5.86-.585-8.571-1.734a21.8 21.8 0 0 1-6.985-4.71 21.9 21.9 0 0 1-4.71-6.985A21.9 21.9 0 0 1 2 24.001c0-2.975.585-5.86 1.734-8.57a21.8 21.8 0 0 1 4.71-6.985 21.9 21.9 0 0 1 6.985-4.71A21.8 21.8 0 0 1 24 2c2.974 0 5.859.585 8.569 1.736M18 15h4v18h-4zm12 0h-4v18h4z"/></svg>