<svg xmlns="http://www.w3.org/2000/svg" width="48" height="48" viewBox="0 0 48 48"><path fill-rule="evenodd" d="M39.554 8.446a21.8 21.8 0 0 0-6.985-4.71A21.8 21.8 0 0 0 24 2c-2.977 0-5.86.585-8.571 1.736a21.9 21.9 0 0 0-6.985 4.71 21.8 21.8 0 0 0-4.71 6.985A21.85 21.85 0 0 0 2 24c0 2.977.585 5.859 1.734 8.571a21.9 21.9 0 0 0 4.71 6.985 21.8 21.8 0 0 0 6.985 4.71A21.9 21.9 0 0 0 24 46a21.85 21.85 0 0 0 8.569-1.734 21.9 21.9 0 0 0 6.985-4.71 21.8 21.8 0 0 0 4.71-6.985A21.9 21.9 0 0 0 46 24a21.85 21.85 0 0 0-1.736-8.569 21.8 21.8 0 0 0-4.71-6.985M17.89 14.222h3.667v18.334h-3.667zm12.222 0h-3.667v18.334h3.667z"/></svg>