<svg xmlns="http://www.w3.org/2000/svg" width="48" height="48" viewBox="0 0 48 48"><g fill-rule="evenodd"><path d="M31.011 7.42a17.8 17.8 0 0 1 5.715 3.854 17.8 17.8 0 0 1 3.854 5.715A17.9 17.9 0 0 1 42 24c0 2.435-.48 4.793-1.42 7.013a17.9 17.9 0 0 1-3.854 5.715A17.95 17.95 0 0 1 24 42c-2.435 0-4.795-.479-7.013-1.418a17.8 17.8 0 0 1-5.715-3.854 17.9 17.9 0 0 1-3.854-5.715A17.9 17.9 0 0 1 6 24c0-2.434.479-4.793 1.418-7.011a17.8 17.8 0 0 1 3.854-5.715 17.9 17.9 0 0 1 5.715-3.854A17.85 17.85 0 0 1 24 6c2.434 0 4.793.479 7.011 1.42m1.558-3.684a21.8 21.8 0 0 1 6.985 4.71 21.8 21.8 0 0 1 4.71 6.985A21.85 21.85 0 0 1 46 24.001c0 2.976-.587 5.858-1.736 8.57a21.8 21.8 0 0 1-4.71 6.985 21.9 21.9 0 0 1-6.985 4.71A21.85 21.85 0 0 1 24 46c-2.977 0-5.86-.585-8.571-1.734a21.8 21.8 0 0 1-6.985-4.71 21.9 21.9 0 0 1-4.71-6.985A21.9 21.9 0 0 1 2 24.001c0-2.975.585-5.86 1.734-8.57a21.8 21.8 0 0 1 4.71-6.985 21.9 21.9 0 0 1 6.985-4.71A21.8 21.8 0 0 1 24 2c2.974 0 5.859.585 8.569 1.736"/><path d="M36.726 11.274a17.8 17.8 0 0 0-5.715-3.854A17.85 17.85 0 0 0 24.001 6a17.85 17.85 0 0 0-7.014 1.42c-2.133.902-4.06 2.2-5.715 3.854a17.8 17.8 0 0 0-3.854 5.715A17.9 17.9 0 0 0 6 24c0 2.435.479 4.793 1.418 7.013.902 2.133 2.2 4.06 3.854 5.715a17.8 17.8 0 0 0 5.715 3.854A17.9 17.9 0 0 0 24 42a17.945 17.945 0 0 0 12.726-5.272 17.9 17.9 0 0 0 3.854-5.715C41.52 28.793 42 26.435 42 24s-.48-4.793-1.42-7.011a17.8 17.8 0 0 0-3.854-5.715m2.828-2.828a21.8 21.8 0 0 0-6.985-4.71A21.8 21.8 0 0 0 24 2c-2.977 0-5.86.585-8.571 1.736a21.9 21.9 0 0 0-6.985 4.71 21.8 21.8 0 0 0-4.71 6.985A21.85 21.85 0 0 0 2 24.001c0 2.976.585 5.858 1.734 8.57a21.9 21.9 0 0 0 4.71 6.985 21.8 21.8 0 0 0 6.985 4.71A21.9 21.9 0 0 0 24 46c2.974 0 5.859-.585 8.569-1.734a21.9 21.9 0 0 0 6.985-4.71 21.8 21.8 0 0 0 4.71-6.985A21.9 21.9 0 0 0 46 24.001a21.85 21.85 0 0 0-1.736-8.57 21.8 21.8 0 0 0-4.71-6.985"/><path d="M18 33V15l16 9z"/></g></svg>