<svg xmlns="http://www.w3.org/2000/svg" width="48" height="48" viewBox="0 0 48 48"><path d="m29.133 36.281 2.495 8.497-4.109 1.207-2.495-8.497zm-11.266 0 4.109 1.207-2.495 8.497-4.11-1.207zm16.635-5.061 6.693 5.799-2.805 3.237-6.692-5.8zm-22.004 0 2.804 3.236-6.692 5.8-2.805-3.237zm23.88-7.31 8.766 1.26-.61 4.24-8.765-1.26zm-25.756 0 .61 4.24-8.766 1.26-.61-4.24zM42.22 12.994 44 16.89l-8.056 3.679-1.779-3.896zm-37.442 0 8.056 3.68-1.78 3.895L3 16.89zm28.575-8.637 3.603 2.315-4.788 7.45-3.603-2.315zm-19.708 0 4.788 7.45-3.603 2.315-4.788-7.45zM25 2v9h-4V2z"/></svg>